<svg width="18" height="19" viewBox="0 0 18 19" fill="none" xmlns="http://www.w3.org/2000/svg">
<path fill-rule="evenodd" clip-rule="evenodd" d="M2.25 13.0918V7.29358H15.75V13.1382C15.75 15.529 14.2681 16.9989 11.8971 16.9989H6.0955C3.74671 16.9989 2.25 15.4985 2.25 13.0918ZM5.96954 11.2182C5.6287 11.2342 5.34715 10.9593 5.33233 10.6097C5.33233 10.2593 5.59907 9.96991 5.9399 9.95391C6.27333 9.95391 6.54748 10.2212 6.55488 10.5632C6.5697 10.9143 6.30296 11.2037 5.96954 11.2182ZM9.01482 11.2182C8.67399 11.2342 8.39243 10.9593 8.37761 10.6097C8.37761 10.2593 8.64435 9.96991 8.98518 9.95391C9.31861 9.95391 9.59276 10.2212 9.60016 10.5632C9.61498 10.9143 9.34824 11.2037 9.01482 11.2182ZM12.0379 14.021C11.697 14.0133 11.4229 13.7239 11.4229 13.3736C11.4155 13.0232 11.6896 12.7346 12.0305 12.727H12.0379C12.3861 12.727 12.6677 13.0164 12.6677 13.3736C12.6677 13.7315 12.3861 14.021 12.0379 14.021ZM8.37761 13.3736C8.39243 13.7239 8.67399 13.9989 9.01482 13.9829C9.34824 13.9684 9.61498 13.679 9.60016 13.3286C9.59276 12.9859 9.31861 12.7186 8.98518 12.7186C8.64435 12.7346 8.37761 13.0232 8.37761 13.3736ZM5.32492 13.3736C5.33974 13.7239 5.6213 13.9989 5.96213 13.9829C6.29555 13.9684 6.56229 13.679 6.54748 13.3286C6.54007 12.9859 6.26592 12.7186 5.93249 12.7186C5.59166 12.7346 5.32492 13.0232 5.32492 13.3736ZM11.4303 10.6021C11.4303 10.2517 11.697 9.96991 12.0379 9.96229C12.3713 9.96229 12.638 10.2357 12.6529 10.5716C12.6603 10.9219 12.3935 11.2113 12.0601 11.2182C11.7193 11.2258 11.4377 10.9593 11.4303 10.6097V10.6021Z" fill="#4D9EFA"/>
<path opacity="0.4" d="M2.25252 7.2935C2.26215 6.84643 2.2992 5.95915 2.36885 5.67354C2.7245 4.06728 3.93224 3.04671 5.65864 2.90125H12.342C14.0535 3.05433 15.2761 4.08175 15.6317 5.67354C15.7007 5.95153 15.7377 6.84567 15.7473 7.2935H2.25252Z" fill="#4D9EFA"/>
<path d="M6.22865 5.26231C6.55467 5.26231 6.79918 5.01174 6.79918 4.67586V2.35369C6.79918 2.01781 6.55467 1.76648 6.22865 1.76648C5.90264 1.76648 5.65813 2.01781 5.65813 2.35369V4.67586C5.65813 5.01174 5.90264 5.26231 6.22865 5.26231" fill="#4D9EFA"/>
<path d="M11.7712 5.26231C12.0898 5.26231 12.3417 5.01174 12.3417 4.67586V2.35369C12.3417 2.01781 12.0898 1.76648 11.7712 1.76648C11.4452 1.76648 11.2007 2.01781 11.2007 2.35369V4.67586C11.2007 5.01174 11.4452 5.26231 11.7712 5.26231" fill="#4D9EFA"/>
</svg>
